<svg width="40px" height="40px" viewBox="0 0 35 35" xmlns="http://www.w3.org/2000/svg"><g fill="#fff"><path d="M13.17 2.08c9.52-3.23 20.21 5.14 20.47 14.91.37 9.52-9.13 18.09-18.58 16.49-5.49-1.17-10.53-5-12.49-10.36-3.87-8.34 2.09-18.65 10.6-21.04m-.64 3.66c-5.42 2.25-8.87 8.5-7.54 14.28 1.14 6.34 7.67 11.1 14.07 10.14 7.11-.67 12.61-8.18 10.94-15.17-1.27-7.67-10.39-12.52-17.47-9.25z"/><path d="M8.15 19.24c3.31-2.93 6.27-6.23 9.51-9.24 3.09 3.13 6.13 6.31 9.38 9.28-.89.87-1.79 1.74-2.68 2.61-2.22-2.28-4.47-4.53-6.75-6.74-2.33 2.2-4.61 4.46-6.8 6.8-.89-.9-1.77-1.8-2.66-2.71z"/></g></svg>