<svg width="22" height="22" viewBox="0 0 692 686" xmlns="http://www.w3.org/2000/svg"><g fill="#fff"><path d="M44.36 65.37c98.23-.2 196.47.02 294.7-.06 2.23-.54 2.18 2.26 2.18 3.68.06 12.87-.06 25.75.11 38.61 98.45-.08 196.92.18 295.37-.28-.15 6.46-.99 12.93-2.2 19.29-1.46 5.44-1.37 11.15-2.81 16.6-.49 1.87-.36 3.81-.09 5.7-.48-.87-.54-1.9-1.03-2.75-.75 12.53-5.39 24.44-7.02 36.86-1.17 2.84-1.53 5.91-2.1 8.92-1.86 6.66-3.18 13.46-4.39 20.25-17.68.6-35.39.27-53.08.39-116.33-.4-232.66-.2-349-.24-8.67.32-17.35-1.72-25.99-.11-34.33.55-68.68.26-103.02.48-6.28.77-12.66.9-18.97.57l-1.2-.88c-2.55-17.88-6.31-35.59-8.38-53.55-3.04-16.44-4.6-33.09-7.17-49.6-1.84-14.64-4.35-29.21-5.91-43.88zM86 235.81c153.66-.44 307.33-.57 461-.13 18.44.24 36.9-.26 55.33.56 26.9.47 53.82.1 80.72.5-.17 2.94-3.65 3.95-4.38 6.71-2.63 7.83-5.64 15.53-7.95 23.47-136.53.25-273.07-.07-409.6.2-.24 116.82-.01 233.65-.15 350.47-26.98-.34-53.98-.05-80.97-.01-8 .16-16.04-.33-23.99.73-8.32.02-16.65.33-24.97.03-2.65-5.19-3.72-11.01-6-16.36-28.36-77-53.06-155.27-78.95-233.12C33.04 328.29 19.1 288.02 5.05 247.8c-1.05-3.22-2.1-6.71-5.05-8.72v-2.51c22.35-.22 44.7.11 67.05-.29 6.32-.04 12.62-.69 18.95-.47z"/><path d="M459.34 348.37c2.67-1.16 5.57-.59 8.26.2 7.35 1.31 12.42 7.71 15.55 14.05 4.06 10.23 4.09 21.55 3.08 32.36-1.64 4.44.6 9.72-2.38 13.68-1.31 13.13-6.11 25.62-9.37 38.34-1.15 4.41 1.65 8.23 3.83 11.78 10.58 16.7 22.48 32.69 36.84 46.34 4.05.9 8.22-.17 12.09-1.43 5.39-.28 10.85-.16 16.08-1.78 8.55-.57 17.16-.2 25.73-.25 4.17-.43 7.79 2.33 11.98 1.84 7.94 1.39 15.69 4.47 22.25 9.22 3.92 2.84 5.04 7.81 5.98 12.27-.07 2.86-1.11 5.63-2.08 8.3-1.84 2.4-4.13 4.45-6.58 6.21-7.21 4.07-15.69 3.13-23.64 3-12.65-2.05-25.03-6.15-36.31-12.29-6.75-4.51-13.98-8.38-20.07-13.82-1.82-1.4-3.4-3.24-5.56-4.08-7.86-.79-15.37 1.97-22.97 3.41-17.72 4.15-35.44 8.68-52.61 14.87-2.76 4.14-5.22 8.49-7.96 12.66-4.91 9.44-11.5 17.82-17.8 26.33-6.35 8.85-14.03 16.66-22.21 23.83-8.1 5.94-17.09 11.86-27.5 11.9-5.41-.81-11.22-1.96-15.03-6.25-3.33-2.7-4.87-6.9-5.23-11.06 1.58-10.75 9.87-18.89 18.28-25 16.85-13.15 36.68-21.5 56.12-29.99 3.43-3.75 4.94-8.84 7.62-13.12 5.87-12.94 12.7-25.48 17.47-38.89 3.49-7.5 6.41-15.28 8.86-23.18 2.37-5.52 4.43-11.17 6.25-16.9.87-3.11.36-6.4-1.07-9.24-5.78-13.37-10.14-27.46-11.87-41.94-1.5-6.14-.89-12.54-.86-18.8.93-5.88 2.2-11.92 5.58-16.96 2.31-2.85 5.77-4.59 9.25-5.61m-7.12 11.77c-3.09 8.51-3.11 17.8-2.37 26.74 1.45 5 1.07 10.32 2.83 15.23 2.09 8.7 5.12 17.12 7.98 25.58.47-.01 1.42-.04 1.89-.05 3.56-9.56 5.34-19.72 7.68-29.55 1.54-3.38.86-7.23 2.14-10.68 1.3-7.39 1.37-14.98.84-22.44-.31-5.61-4.3-11.5-10.21-12.08-4.81-.44-8.38 3.6-10.78 7.25m17.21 101.15c-2.5 8.33-6.15 16.25-8.93 24.48-4.97 12.4-10.78 24.44-16.92 36.29.35.37 1.03 1.1 1.37 1.46 7.66-2.57 15.31-5.25 23.2-7.06 4.47-.99 8.94-2.08 13.23-3.72 7.34-.98 14.36-3.75 21.74-4.27.21-.21.63-.63.83-.84 1.61-.35 3.28-.29 4.89-.68-.62-3.1-4.05-4.52-5.83-6.96-5.65-6.7-11.5-13.23-16.75-20.25-4.95-7.06-9.45-14.43-14.2-21.62-1.2.75-2.51 1.62-2.63 3.17m71.86 46.03c-5.4 1.79-11.24.49-16.59 2.25-1.73.17-2.23 2.55-.68 3.35 11.94 9.26 24.99 17.67 39.82 21.38 5.48 2.02 11.43 1.36 17.15 1.18 3.28-1.03 6.7-2.67 8.73-5.58 2.94-3.61 1.77-8.61 1.65-12.88-2.67-4.37-7.13-8.05-12.39-8.41-4.05-.25-7.86-2.11-11.96-1.83-8.57.15-17.21-.52-25.73.54m-135.31 36.47c-18.43 8.56-37.57 17.42-51.47 32.73-3.7 3.97-6.64 9.58-4.97 15.1 2.08 4.93 8.04 8.16 13.23 6.31 8.78-2.99 15.97-9.27 22-16.13 9.59-10.03 17.33-21.65 24.68-33.38 1.43-2.45 3.39-4.63 4.36-7.32-2.89-.25-5.28 1.67-7.83 2.69z"/></g><path fill="#ed1807" d="M261.12 267.12c136.53-.27 273.07.05 409.6-.2 7.09.15 14.18.06 21.28.08v419H261.01c-.02-22.81.03-45.61-.04-68.41.14-116.82-.09-233.65.15-350.47m17.64 17.63c-.58 6.06-.04 12.17-.22 18.25-.06 121.56.1 243.12-.11 364.68 1.47.39 3 .51 4.53.55 129.35-.05 258.69.03 388.04.02.73-.07 2.2-.22 2.94-.29.52-3.97.2-7.98.26-11.96 0-122.35-.07-244.69-.04-367.04-.04-1.53-.16-3.05-.49-4.54-127.89.22-255.78.04-383.67.11-3.75.09-7.52-.31-11.24.22z"/><g fill="#2b0c0b"><path d="M278.76 284.75c3.72-.53 7.49-.13 11.24-.22 127.89-.07 255.78.11 383.67-.11.33 1.49.45 3.01.49 4.54-.03 122.35.04 244.69.04 367.04-.06 3.98.26 7.99-.26 11.96-.74.07-2.21.22-2.94.29-129.35.01-258.69-.07-388.04-.02-1.53-.04-3.06-.16-4.53-.55.21-121.56.05-243.12.11-364.68.18-6.08-.36-12.19.22-18.25m180.58 63.62c-3.48 1.02-6.94 2.76-9.25 5.61-3.38 5.04-4.65 11.08-5.58 16.96-.03 6.26-.64 12.66.86 18.8 1.73 14.48 6.09 28.57 11.87 41.94 1.43 2.84 1.94 6.13 1.07 9.24-1.82 5.73-3.88 11.38-6.25 16.9-2.45 7.9-5.37 15.68-8.86 23.18-4.77 13.41-11.6 25.95-17.47 38.89-2.68 4.28-4.19 9.37-7.62 13.12-19.44 8.49-39.27 16.84-56.12 29.99-8.41 6.11-16.7 14.25-18.28 25 .36 4.16 1.9 8.36 5.23 11.06 3.81 4.29 9.62 5.44 15.03 6.25 10.41-.04 19.4-5.96 27.5-11.9 8.18-7.17 15.86-14.98 22.21-23.83 6.3-8.51 12.89-16.89 17.8-26.33 2.74-4.17 5.2-8.52 7.96-12.66 17.17-6.19 34.89-10.72 52.61-14.87 7.6-1.44 15.11-4.2 22.97-3.41 2.16.84 3.74 2.68 5.56 4.08 6.09 5.44 13.32 9.31 20.07 13.82 11.28 6.14 23.66 10.24 36.31 12.29 7.95.13 16.43 1.07 23.64-3 2.45-1.76 4.74-3.81 6.58-6.21.97-2.67 2.01-5.44 2.08-8.3-.94-4.46-2.06-9.43-5.98-12.27-6.56-4.75-14.31-7.83-22.25-9.22-4.19.49-7.81-2.27-11.98-1.84-8.57.05-17.18-.32-25.73.25-5.23 1.62-10.69 1.5-16.08 1.78-3.87 1.26-8.04 2.33-12.09 1.43-14.36-13.65-26.26-29.64-36.84-46.34-2.18-3.55-4.98-7.37-3.83-11.78 3.26-12.72 8.06-25.21 9.37-38.34 2.98-3.96.74-9.24 2.38-13.68 1.01-10.81.98-22.13-3.08-32.36-3.13-6.34-8.2-12.74-15.55-14.05-2.69-.79-5.59-1.36-8.26-.2z"/><path d="M452.22 360.14c2.4-3.65 5.97-7.69 10.78-7.25 5.91.58 9.9 6.47 10.21 12.08.53 7.46.46 15.05-.84 22.44-1.28 3.45-.6 7.3-2.14 10.68-2.34 9.83-4.12 19.99-7.68 29.55-.47.01-1.42.04-1.89.05-2.86-8.46-5.89-16.88-7.98-25.58-1.76-4.91-1.38-10.23-2.83-15.23-.74-8.94-.72-18.23 2.37-26.74zM469.43 461.29c.12-1.55 1.43-2.42 2.63-3.17 4.75 7.19 9.25 14.56 14.2 21.62 5.25 7.02 11.1 13.55 16.75 20.25 1.78 2.44 5.21 3.86 5.83 6.96-1.61.39-3.28.33-4.89.68-.2.21-.62.63-.83.84-7.38.52-14.4 3.29-21.74 4.27-4.29 1.64-8.76 2.73-13.23 3.72-7.89 1.81-15.54 4.49-23.2 7.06-.34-.36-1.02-1.09-1.37-1.46 6.14-11.85 11.95-23.89 16.92-36.29 2.78-8.23 6.43-16.15 8.93-24.48zM541.29 507.32c8.52-1.06 17.16-.39 25.73-.54 4.1-.28 7.91 1.58 11.96 1.83 5.26.36 9.72 4.04 12.39 8.41.12 4.27 1.29 9.27-1.65 12.88-2.03 2.91-5.45 4.55-8.73 5.58-5.72.18-11.67.84-17.15-1.18-14.83-3.71-27.88-12.12-39.82-21.38-1.55-.8-1.05-3.18.68-3.35 5.35-1.76 11.19-.46 16.59-2.25zM405.98 543.79c2.55-1.02 4.94-2.94 7.83-2.69-.97 2.69-2.93 4.87-4.36 7.32-7.35 11.73-15.09 23.35-24.68 33.38-6.03 6.86-13.22 13.14-22 16.13-5.19 1.85-11.15-1.38-13.23-6.31-1.67-5.52 1.27-11.13 4.97-15.1 13.9-15.31 33.04-24.17 51.47-32.73z"/></g></svg>