<svg width="21" height="24" viewBox="0 0 132 146" xmlns="http://www.w3.org/2000/svg"><g fill="#f01e06"><path d="M1.73 0H124.3c.17 29.45.03 58.91.06 88.36-1.16-1.79-3-2.45-5.06-2.07-.08-26.82-.08-53.63-.03-80.44l-.53-.49c-37.19.02-74.38 0-111.57.02-.08.36-.25 1.09-.33 1.46.03 35.73-.01 71.46-.05 107.19l.41.57c21.69.04 43.38.02 65.07.03 0 1.61.02 3.22-.03 4.83-.52.2-1.57.6-2.1.8-22.42-.03-44.84-.01-67.26-.01-.32-.22-.94-.68-1.26-.9.17-39.78-.06-79.57.11-119.35zM79.67 118.74c14.58-.02 29.17.06 43.75-.04l1.42.42-1.13.61c-14.64.1-29.29.02-43.93.05l-.11-1.04z"/></g><g fill="#1f0200"><path opacity=".93" d="M7.17 5.38c37.19-.02 74.38 0 111.57-.02l.53.49c-.05 26.81-.05 53.62.03 80.44-15.68.05-31.37-.05-47.05.05.04 9.43.02 18.86.02 28.29-21.69-.01-43.38.01-65.07-.03l-.41-.57c.04-35.73.08-71.46.05-107.19.08-.37.25-1.1.33-1.46m47.31 21.64c-1.78 7.44.88 15.07 3.76 21.91-3.43 9.31-6.72 18.82-11.93 27.35-5.78 2.08-11.42 4.9-16.29 8.69-2.43 2.09-5.68 5-4.36 8.57 2 3.87 7.36 3.76 10.62 1.62 7.27-4.69 11.77-12.43 16.15-19.63 7.03-2.36 14.21-4.61 21.59-5.44 6.29 5.63 14.9 10.22 23.56 8.23 3.9-1.17 4.13-6.94.57-8.69-7.14-3.59-15.77-2.7-23.35-1.21-5.34-3.97-8.83-9.95-12.43-15.45.79-5.3 3.13-10.46 3.36-15.94.37-4.52.57-10.37-3.85-13.06-2.81-1.73-6.5-.01-7.4 3.05z"/><path opacity=".93" d="M55.57 29.07c.12-2.03 1.4-3.93 3.42-4.47.56.29 1.68.88 2.24 1.17 2.83 6.46-.87 13.43-1.78 19.93l-1.16-.08c-1.65-5.34-3.55-10.87-2.72-16.55zM53.15 73.47c4-5.82 5.69-12.85 8.7-19.14 2.44 5.17 6.13 9.8 10.23 13.79l-.78.87c-6.22.74-12.12 2.97-18.15 4.48zM76.09 69.46c5.77-.63 11.82-1.63 17.49.14 2.25.81 2.93 3.69 1.64 5.61-2.06 2.45-5.72 1.8-8.4.91-3.9-1.49-8.13-3.42-10.73-6.66zM26.61 92.02c2.88-7.64 11.75-10.12 18.22-13.87.11 2.08-1.76 3.36-2.61 5.07-2.97 4.19-6.03 8.73-10.72 11.15-2.04 1.08-4.32-.24-4.89-2.35zM85.14 91.3c11.49.01 22.98-.06 34.46.04-.02 5.79-.03 11.58.01 17.37-11.62.11-23.24.03-34.86.04-.07-5.71.1-11.42-.09-17.13l.48-.32m24.61 2.46c-.02 4.18-.01 8.35-.01 12.53 2.51.02 5.02-.01 7.53.02-.01-4.19.02-8.38-.01-12.56-2.51.01-5.01-.01-7.51.01z"/></g><g fill="#fff"><path d="M54.48 27.02c.9-3.06 4.59-4.78 7.4-3.05 4.42 2.69 4.22 8.54 3.85 13.06-.23 5.48-2.57 10.64-3.36 15.94 3.6 5.5 7.09 11.48 12.43 15.45 7.58-1.49 16.21-2.38 23.35 1.21 3.56 1.75 3.33 7.52-.57 8.69-8.66 1.99-17.27-2.6-23.56-8.23-7.38.83-14.56 3.08-21.59 5.44-4.38 7.2-8.88 14.94-16.15 19.63-3.26 2.14-8.62 2.25-10.62-1.62-1.32-3.57 1.93-6.48 4.36-8.57 4.87-3.79 10.51-6.61 16.29-8.69 5.21-8.53 8.5-18.04 11.93-27.35-2.88-6.84-5.54-14.47-3.76-21.91m1.09 2.05c-.83 5.68 1.07 11.21 2.72 16.55l1.16.08c.91-6.5 4.61-13.47 1.78-19.93-.56-.29-1.68-.88-2.24-1.17-2.02.54-3.3 2.44-3.42 4.47m-2.42 44.4c6.03-1.51 11.93-3.74 18.15-4.48l.78-.87c-4.1-3.99-7.79-8.62-10.23-13.79-3.01 6.29-4.7 13.32-8.7 19.14m22.94-4.01c2.6 3.24 6.83 5.17 10.73 6.66 2.68.89 6.34 1.54 8.4-.91 1.29-1.92.61-4.8-1.64-5.61-5.67-1.77-11.72-.77-17.49-.14M26.61 92.02c.57 2.11 2.85 3.43 4.89 2.35 4.69-2.42 7.75-6.96 10.72-11.15.85-1.71 2.72-2.99 2.61-5.07-6.47 3.75-15.34 6.23-18.22 13.87zM72.25 86.34c15.68-.1 31.37 0 47.05-.05 2.06-.38 3.9.28 5.06 2.07 2.51 2.61 5.17 5.09 7.64 7.74V146H72.27c-.02-8.85.03-17.69-.03-26.54.05-1.61.03-3.22.03-4.83 0-9.43.02-18.86-.02-28.29m12.89 4.96l-.48.32c.19 5.71.02 11.42.09 17.13 11.62-.01 23.24.07 34.86-.04-.04-5.79-.03-11.58-.01-17.37-11.48-.1-22.97-.03-34.46-.04m-5.47 27.44l.11 1.04c-.09 7.16-.01 14.32-.04 21.48 15.01.02 30.02.04 45.03-.01-.01-7.37-.17-14.77.07-22.13l-1.42-.42c-14.58.1-29.17.02-43.75.04z"/><path d="M109.75 93.76c2.5-.02 5 0 7.51-.01.03 4.18 0 8.37.01 12.56-2.51-.03-5.02 0-7.53-.02 0-4.18-.01-8.35.01-12.53zM84.75 123.76c11.55-.08 23.11.09 34.66-.08.09.65.26 1.95.35 2.59-11.68.02-23.35.03-35.03 0 .01-.63.02-1.88.02-2.51zM84.75 128.76c11.66-.05 23.33 0 35-.03-.11.65-.32 1.93-.42 2.58-11.53-.07-23.06 0-34.59-.04 0-.63.01-1.89.01-2.51zM84.75 133.75c11.67-.02 23.33 0 35-.01 0 .63.02 1.89.02 2.52-11.67.03-23.35.01-35.02.01v-2.52z"/></g></svg>