<svg xmlns="http://www.w3.org/2000/svg" width="28" height="28" viewBox="0 0 24 24" fill="#FFF"><path d="M12 0C5.373 0 0 5.373 0 12s5.373 12 12 12 12-5.373 12-12S18.627 0 12 0zm0 22C6.486 22 2 17.514 2 12c0-2.397.85-4.6 2.262-6.324l11.197 11.209.004-.008 2.861 2.861A9.951 9.951 0 0 1 12 22zm7.738-3.676l-3.312-3.313c.61-1.215 1.393-2.768 1.478-2.97A.963.963 0 0 0 18 11.64c0-.81-1.276-1.127-1.697-.324-.007.01-.757 1.388-.872 1.604-.124.228-.494.18-.494-.118V7.476c0-.839-1.348-.814-1.348 0v4.696l-.453-.451-.002-5.065c0-.44-.355-.656-.714-.656-.363 0-.729.222-.729.656v3.62l-.437-.437V7.41c0-.861-1.476-.885-1.476 0v.954L5.676 4.262A9.951 9.951 0 0 1 12 2c5.514 0 10 4.486 10 10 0 2.397-.85 4.6-2.262 6.324zM8.002 10.841l6.768 6.769c-.35.236-.8.39-1.429.39h-2.935C8.831 18 8 17.15 8 15.663l.002-4.822z"/></svg>