<svg xmlns="http://www.w3.org/2000/svg" width="27" height="27" shape-rendering="geometricPrecision" text-rendering="geometricPrecision" image-rendering="optimizeQuality" clip-rule="evenodd" viewBox="0 0 10240 10240"><title>shopping_cart2 icon</title><desc>shopping_cart2 icon from the IconExperience.com O-Collection. Copyright by INCORS GmbH (www.incors.com).</desc><path fill="#252525" d="M7360 7680c530 0 960 430 960 960s-430 960-960 960-960-430-960-960 430-960 960-960zm-5120 0c530 0 960 430 960 960s-430 960-960 960-960-430-960-960 430-960 960-960zM1920 7356c-264 0-478-214-478-478s214-478 478-478h5120l-448-1084c-45-102-52-211-27-311h-1l752-3008c37-149 140-264 270-322l1228-656c233-124 522-36 647 197 124 233 36 523-197 647l-1069 571-661 2644 682 1605c26 60 41 126 41 195 0 264-214 478-478 478H1920z"/><path fill="#00783F" d="M1407 1600h4813c204 0 379 88 505 252 125 165 166 361 116 563l-772 3168c-83 341-414 555-751 483l-3615-767c-261-55-453-256-500-525L777 2374c-35-199 13-384 138-538 126-155 295-236 492-236zm0 656l166 936h667v-936h-833zm224 1264l170 960h439v-960h-609zm929 1291l960 204v-207h-960v3zm960-331v-960h-960v960h960zm0-1288v-936h-960v936h960zm320 1890l960 204v-478h-960v274zm960-602v-960h-960v960h960zm0-1288v-936h-960v936h960zm320 2162l328 70 150-616h-478v546zm558-874l234-960h-792v960h558zm314-1288l228-936H5120v936h872z"/></svg>