<svg xmlns="http://www.w3.org/2000/svg" width="16" height="16" fill="#666" viewBox="0 0 24 24"><path d="M24 2v22H0V2h3v1c0 1.103.897 2 2 2s2-.897 2-2V2h10v1c0 1.103.897 2 2 2s2-.897 2-2V2h3zm-2 6H2v14h20V8zm-2-7c0-.552-.447-1-1-1s-1 .448-1 1v2c0 .552.447 1 1 1s1-.448 1-1V1zM6 3c0 .552-.447 1-1 1s-1-.448-1-1V1c0-.552.447-1 1-1s1 .448 1 1v2zm6.687 13.482c0-.802-.418-1.43-1.11-1.695.53-.264.837-.807.837-1.503 0-1.346-1.312-2.15-2.58-2.15-1.478 0-2.592.926-2.66 2.764H8.82c-.015-.76.27-1.315 1.024-1.315.45 0 .933.272.933.87 0 .753-.816.86-1.567.796v1.28c1.067 0 1.704.066 1.704.984 0 .724-.548 1.048-1.09 1.048-.823 0-1.16-.614-1.19-1.452H7.002C6.97 18.002 8.116 19 9.844 19c1.543 0 2.844-.943 2.844-2.518zM17 19v-7.718h-1.392c-.173 1.154-.995 1.49-2.17 1.46v1.345h1.85V19H17z"/></svg>