<?xml version="1.0" encoding="UTF-8" ?>
<!DOCTYPE svg PUBLIC "-//W3C//DTD SVG 1.1//EN" "http://www.w3.org/Graphics/SVG/1.1/DTD/svg11.dtd">
<svg width="705pt" height="397pt" viewBox="0 0 705 397" version="1.1" xmlns="http://www.w3.org/2000/svg">
<g id="#ffffffff">
<path fill="#ffffff" opacity="1.00" d=" M 286.00 0.00 L 289.13 0.00 C 289.12 55.49 289.16 110.99 289.11 166.48 C 342.07 166.50 395.03 166.49 447.99 166.49 C 447.99 167.66 447.99 168.83 448.00 170.00 C 394.97 169.99 341.93 170.03 288.90 169.98 C 287.33 170.16 285.70 168.76 286.02 167.13 C 285.97 111.42 286.02 55.71 286.00 0.00 Z" />
<path fill="#ffffff" opacity="1.00" d=" M 300.92 38.17 C 306.33 38.13 311.75 38.15 317.16 38.15 C 317.17 78.59 317.15 119.02 317.17 159.46 C 311.75 159.45 306.33 159.47 300.92 159.45 C 300.93 119.02 300.92 78.59 300.92 38.17 Z" />
<path fill="#ffffff" opacity="1.00" d=" M 381.30 54.38 C 386.72 54.36 392.13 54.36 397.55 54.38 C 397.52 89.41 397.53 124.43 397.54 159.46 C 392.13 159.46 386.72 159.46 381.31 159.46 C 381.33 124.43 381.35 89.41 381.30 54.38 Z" />
<path fill="#ffffff" opacity="1.00" d=" M 354.53 70.64 C 359.95 70.64 365.37 70.60 370.79 70.67 C 370.69 100.26 370.73 129.85 370.77 159.44 C 365.35 159.48 359.94 159.46 354.53 159.46 C 354.55 129.85 354.55 100.25 354.53 70.64 Z" />
<path fill="#ffffff" opacity="1.00" d=" M 327.63 86.87 C 333.28 86.86 338.92 86.87 344.56 86.86 C 344.58 111.06 344.54 135.26 344.58 159.46 C 338.93 159.46 333.28 159.46 327.63 159.46 C 327.64 135.26 327.63 111.06 327.63 86.87 Z" />
<path fill="#ffffff" opacity="1.00" d=" M 580.15 181.24 C 588.10 181.35 596.04 181.27 603.99 181.29 C 604.01 235.86 604.00 290.44 604.00 345.02 C 596.06 345.02 588.13 345.02 580.19 345.02 C 580.16 290.43 580.24 235.83 580.15 181.24 Z" />
<path fill="#ffffff" opacity="1.00" d=" M 0.00 188.93 C 27.00 188.93 54.00 188.93 81.00 188.93 C 81.00 195.58 81.00 202.22 81.00 208.87 C 61.67 208.86 42.33 208.86 23.00 208.87 C 23.00 223.83 23.00 238.80 23.00 253.77 C 41.28 253.74 59.55 253.80 77.83 253.74 C 77.83 260.34 77.80 266.95 77.85 273.55 C 59.57 273.43 41.28 273.53 23.00 273.50 C 23.00 290.69 23.00 307.87 23.00 325.06 C 43.50 325.06 64.01 325.07 84.51 325.06 C 84.47 331.70 84.50 338.35 84.49 345.00 C 56.33 345.00 28.16 345.00 0.00 345.00 L 0.00 188.93 Z" />
<path fill="#ffffff" opacity="1.00" d=" M 101.56 239.36 C 114.94 231.87 130.74 228.94 145.94 230.69 C 155.51 231.86 165.29 235.88 171.17 243.84 C 178.12 252.59 179.91 264.14 180.14 275.01 C 180.22 291.33 180.14 307.65 180.17 323.97 C 180.27 331.01 180.54 338.08 181.95 345.00 C 174.71 344.99 167.48 345.03 160.24 344.97 C 159.86 340.53 159.10 336.13 158.72 331.70 C 155.07 335.44 151.60 339.51 146.86 341.97 C 136.55 347.86 123.45 349.00 112.43 344.42 C 104.61 341.01 98.31 334.24 95.62 326.13 C 91.77 314.54 93.59 300.95 101.27 291.31 C 106.85 284.39 114.95 279.88 123.31 277.16 C 133.98 273.65 145.27 272.75 156.44 272.48 C 156.56 265.75 155.81 258.20 150.90 253.12 C 145.14 247.64 136.57 247.04 129.04 247.74 C 121.07 248.58 113.19 251.05 106.35 255.29 C 104.88 249.94 103.10 244.69 101.56 239.36 M 132.73 291.81 C 126.67 293.62 121.01 297.79 118.61 303.79 C 115.25 312.39 117.27 324.61 126.61 328.50 C 139.07 333.48 154.73 324.40 156.67 311.11 C 157.44 303.61 156.80 296.05 157.00 288.53 C 148.82 288.59 140.50 289.08 132.73 291.81 Z" />
<path fill="#ffffff" opacity="1.00" d=" M 230.02 230.88 C 242.02 228.94 254.57 231.11 265.39 236.59 C 263.68 242.36 261.89 248.10 260.11 253.85 C 254.08 250.07 247.06 247.90 239.96 247.54 C 234.76 247.30 229.01 248.48 225.47 252.61 C 220.79 257.69 221.35 266.80 227.00 270.96 C 235.59 277.72 246.82 279.85 255.52 286.47 C 262.06 290.92 267.08 297.77 268.65 305.59 C 270.72 316.07 268.41 327.95 260.61 335.63 C 251.99 344.49 239.03 347.27 227.07 347.25 C 216.59 346.98 205.95 344.85 196.70 339.75 C 198.57 333.86 200.16 327.90 202.07 322.03 C 210.73 327.12 220.88 330.29 231.00 329.52 C 236.38 329.07 242.22 326.91 244.91 321.89 C 247.38 317.02 247.20 310.63 243.97 306.15 C 237.67 298.43 227.43 296.35 219.10 291.65 C 210.72 286.89 202.74 279.77 200.41 270.05 C 198.68 261.88 200.29 252.97 205.01 246.05 C 210.52 237.53 220.21 232.51 230.02 230.88 Z" />
<path fill="#ffffff" opacity="1.00" d=" M 406.88 237.94 C 423.78 228.51 445.15 227.67 462.91 235.20 C 461.21 241.27 459.80 247.41 458.18 253.51 C 450.45 249.47 441.46 248.33 432.87 249.26 C 422.33 250.53 412.92 257.56 408.39 267.10 C 403.24 277.87 402.46 290.43 405.16 301.97 C 407.66 312.40 414.73 321.98 424.92 325.92 C 435.92 330.04 448.34 328.31 458.94 323.76 C 460.18 329.67 461.12 335.65 462.24 341.58 C 449.64 346.74 435.57 348.48 422.12 346.31 C 408.56 344.03 395.90 336.16 388.60 324.41 C 379.75 310.08 377.94 292.25 380.93 275.92 C 383.77 260.38 393.04 245.85 406.88 237.94 Z" />
<path fill="#ffffff" opacity="1.00" d=" M 477.71 239.40 C 491.61 231.54 508.22 228.67 523.99 230.97 C 534.54 232.47 544.81 238.22 550.00 247.79 C 558.21 262.09 555.96 279.19 556.32 294.98 C 556.73 311.64 555.14 328.49 558.08 345.00 C 550.86 344.99 543.64 345.02 536.41 344.98 C 535.97 340.54 535.29 336.12 534.83 331.68 C 531.27 335.54 527.69 339.51 522.96 342.00 C 512.61 347.87 499.47 349.02 488.45 344.36 C 481.01 341.04 474.91 334.74 472.10 327.07 C 467.56 314.66 469.76 299.65 478.74 289.75 C 485.68 282.26 495.31 277.88 505.12 275.56 C 514.10 273.30 523.38 272.74 532.61 272.48 C 532.66 266.14 532.08 259.19 527.91 254.08 C 524.25 249.73 518.42 248.03 512.95 247.60 C 502.33 246.96 491.63 249.84 482.49 255.21 C 480.95 249.92 479.31 244.67 477.71 239.40 M 502.06 295.03 C 494.06 299.91 491.52 310.55 494.35 319.12 C 495.81 324.27 500.33 328.23 505.50 329.44 C 517.19 331.85 530.29 324.02 532.64 312.07 C 533.79 304.28 532.84 296.37 533.07 288.53 C 522.52 288.67 511.27 289.35 502.06 295.03 Z" />
<path fill="#ffffff" opacity="1.00" d=" M 654.90 234.94 C 670.74 228.48 689.25 228.52 705.00 235.27 L 705.00 236.29 L 704.54 236.64 C 702.70 242.15 701.65 247.90 700.01 253.48 C 690.69 248.81 679.53 247.60 669.48 250.40 C 658.51 253.60 650.45 263.32 647.56 274.15 C 644.13 286.74 644.70 301.04 651.35 312.51 C 655.43 319.81 662.68 325.14 670.75 327.19 C 680.81 329.49 691.47 327.86 700.84 323.71 C 701.99 329.68 703.09 335.66 704.07 341.67 C 686.54 348.48 665.76 349.96 648.66 341.12 C 636.69 335.11 628.03 323.59 624.39 310.82 C 620.06 295.95 620.45 279.59 625.92 265.06 C 631.00 251.67 641.54 240.32 654.90 234.94 Z" />
<path fill="#ffffff" opacity="1.00" d=" M 273.44 232.49 C 282.14 232.54 290.84 232.61 299.54 232.52 C 306.22 253.71 313.15 274.82 319.90 295.99 C 322.27 303.53 323.94 311.28 326.37 318.80 C 333.92 289.90 342.53 261.30 350.57 232.54 C 358.94 232.50 367.32 232.51 375.69 232.46 C 366.58 258.50 357.47 284.53 348.41 310.58 C 344.28 321.84 340.16 333.12 335.42 344.15 C 330.31 355.54 324.82 366.98 316.66 376.54 C 308.85 385.97 297.92 392.58 286.22 395.99 C 284.12 389.28 282.13 382.53 279.99 375.84 C 294.81 370.57 307.01 358.57 312.66 343.91 C 313.61 341.86 313.34 339.56 312.62 337.50 C 299.55 302.50 286.38 267.54 273.44 232.49 Z" />
</g>
</svg>
