<svg width="482pt" height="610pt" left="45pt" opacity="0.15" viewBox="0 0 482 610" xmlns="http://www.w3.org/2000/svg"><g fill="#FFF"><path d="M0 0h10.39c0 197.68.01 395.36 0 593.05-.35 1.6.7 3.67 2.56 3.43 156.35-.04 312.7.02 469.05-.03V610H3.59c-.07-1.42-.12-2.83-.16-4.23-1.15-.23-2.29-.47-3.43-.74V0z"/><path d="M53.39 136.42c19.01-.26 38.02.04 57.04-.16.62 1.18.97 2.41 1.05 3.71-.04 142.68 0 285.37-.02 428.04-.32.65-.96 1.93-1.28 2.57-18.45.1-36.89.03-55.34.04-.37-.36-1.12-1.07-1.5-1.42.03-144.26-.05-288.53.05-432.78zM343.51 197.92c-.17-1.9 1.64-3.95 3.65-3.5 18.42.12 36.84-.18 55.25.16.15 124.93-.1 249.87.13 374.8-1.45.53-2.86 1.36-4.45 1.24-17.06.02-34.12 0-51.18.01-1.78.39-2.83-1.18-3.35-2.61-.04-123.36.04-246.73-.05-370.1zM248.41 252.58c17.85-.21 35.72-.01 53.58-.1 1.62-.33 3.54.94 3.46 2.68-.01 105.14.05 210.29-.03 315.43-1.42.49-2.87.96-4.39.85-17.55-.06-35.09-.01-52.64-.03-.61-.61-1.23-1.2-1.84-1.77-.06-103.56.02-207.11-.04-310.66.15-2.18-.81-5.45 1.9-6.4zM149.64 310.64c19.11-.28 38.22-.03 57.34-.13 1.66-.31 3.7.74 3.51 2.66.08 84.88-.02 169.78.05 254.66.52 2.11-1.92 3.03-3.5 3.57-17.02.05-34.04-.02-51.06.03-2.22.16-4.29-.72-6.41-1.17-.12-69.08-.02-138.17-.05-207.25.07-17.46-.16-34.92.12-52.37z"/></g></svg>