<?xml version="1.0" encoding="UTF-8" ?>
<!DOCTYPE svg PUBLIC "-//W3C//DTD SVG 1.1//EN" "http://www.w3.org/Graphics/SVG/1.1/DTD/svg11.dtd">
<svg width="530pt" height="150pt" viewBox="0 0 530 150" version="1.1" xmlns="http://www.w3.org/2000/svg" fill="red">
<g id="#008fcbff">
<path fill="#00783F" opacity="1.00" d=" M 429.34 0.00 L 446.00 0.00 C 446.00 38.00 446.00 76.00 446.00 114.00 C 440.44 114.00 434.89 114.01 429.33 113.99 C 429.35 75.99 429.33 38.00 429.34 0.00 Z" />
<path fill="#00783F" opacity="1.00" d=" M 0.45 5.28 C 19.48 5.24 38.51 5.27 57.54 5.27 C 57.41 9.87 57.48 14.47 57.46 19.08 C 43.99 19.15 30.53 19.09 17.06 19.11 C 17.05 29.57 17.05 40.04 17.05 50.50 C 29.77 50.54 42.48 50.42 55.19 50.56 C 55.15 55.11 55.18 59.66 55.16 64.21 C 42.46 64.22 29.76 64.21 17.06 64.21 C 17.05 76.19 17.05 88.17 17.05 100.15 C 31.34 100.13 45.63 100.19 59.92 100.12 C 59.88 104.75 59.89 109.37 59.90 113.99 C 40.11 114.01 20.32 114.00 0.53 114.00 C 0.47 77.76 0.65 41.52 0.45 5.28 Z" />
<path fill="#00783F" opacity="1.00" d=" M 75.92 40.47 C 85.64 35.09 97.13 33.04 108.11 34.60 C 116.09 35.71 123.79 40.61 127.06 48.14 C 131.99 58.73 130.31 70.69 130.62 81.98 C 130.87 92.67 129.92 103.48 131.79 114.06 C 126.78 114.05 121.77 114.05 116.76 114.06 C 116.30 110.94 115.98 107.80 115.66 104.67 C 111.95 108.74 107.68 112.58 102.28 114.18 C 94.20 116.73 84.45 115.86 77.96 110.03 C 66.85 100.43 68.31 80.48 80.40 72.31 C 90.01 65.15 102.50 63.82 114.12 63.59 C 114.13 58.82 113.81 53.38 110.00 49.97 C 105.24 45.56 98.20 45.75 92.20 46.67 C 87.54 47.32 83.26 49.37 79.23 51.71 C 78.25 47.93 76.97 44.23 75.92 40.47 M 89.84 81.99 C 86.14 86.68 85.65 93.97 88.95 99.00 C 94.32 106.30 106.41 104.00 111.20 97.17 C 116.29 90.80 113.97 82.18 114.44 74.71 C 105.94 74.78 96.03 75.34 89.84 81.99 Z" />
<path fill="#00783F" opacity="1.00" d=" M 167.79 34.89 C 176.63 32.99 185.87 34.70 193.99 38.44 C 192.75 42.47 191.51 46.50 190.36 50.56 C 184.65 47.15 177.72 45.16 171.10 46.69 C 167.90 47.86 164.50 50.19 164.15 53.89 C 163.21 57.46 165.08 61.03 167.97 63.07 C 174.96 68.01 184.02 69.55 190.14 75.83 C 197.52 82.50 198.49 94.21 194.05 102.78 C 191.18 108.31 185.64 111.94 179.82 113.77 C 168.68 117.00 156.37 115.73 146.10 110.35 C 147.35 106.23 148.53 102.10 149.80 97.99 C 157.67 102.44 167.84 105.55 176.43 101.33 C 182.60 97.64 182.01 87.75 176.10 84.09 C 168.90 79.42 159.94 77.49 153.93 71.00 C 147.29 64.72 146.62 53.95 151.23 46.31 C 154.80 40.37 161.04 36.25 167.79 34.89 Z" />
<path fill="#00783F" opacity="1.00" d=" M 286.24 55.26 C 291.43 44.04 302.74 36.23 314.91 34.62 C 323.26 33.33 331.85 34.53 339.75 37.43 C 338.55 41.70 337.64 46.06 336.25 50.28 C 328.69 46.66 319.35 45.80 311.68 49.59 C 305.12 52.87 300.84 59.56 299.37 66.62 C 297.55 75.34 298.27 85.07 303.34 92.63 C 306.96 98.25 313.42 101.72 320.03 102.17 C 325.81 102.73 331.62 101.47 336.90 99.13 C 337.76 103.29 338.44 107.49 339.22 111.68 C 326.78 116.46 312.07 117.43 300.05 110.94 C 292.43 107.08 287.13 99.76 284.26 91.86 C 280.48 79.98 280.74 66.58 286.24 55.26 Z" />
<path fill="#00783F" opacity="1.00" d=" M 353.99 40.50 C 363.40 35.25 374.47 33.23 385.14 34.43 C 391.97 35.20 398.63 38.50 402.81 44.05 C 407.28 50.40 408.62 58.34 408.72 65.95 C 408.82 78.63 408.64 91.31 408.85 103.98 C 408.89 107.37 409.31 110.73 409.95 114.05 C 404.93 114.05 399.91 114.05 394.89 114.05 C 394.44 110.93 394.07 107.80 393.81 104.66 C 390.10 108.82 385.71 112.60 380.27 114.22 C 371.97 116.82 361.93 115.72 355.48 109.49 C 345.07 99.69 346.64 80.45 358.43 72.39 C 368.06 65.14 380.63 63.82 392.31 63.59 C 392.12 59.70 392.19 55.48 389.88 52.14 C 387.41 48.16 382.59 46.32 378.08 46.18 C 370.80 45.85 363.47 47.76 357.33 51.71 C 356.37 47.93 355.17 44.22 353.99 40.50 M 371.16 79.20 C 364.62 83.09 363.09 92.72 367.02 98.94 C 372.35 106.30 384.37 104.00 389.31 97.31 C 394.38 90.87 392.12 82.23 392.59 74.71 C 385.29 74.70 377.51 75.26 371.16 79.20 Z" />
<path fill="#00783F" opacity="1.00" d=" M 492.02 35.24 C 501.33 33.13 511.20 34.06 520.11 37.43 C 519.15 41.77 517.95 46.04 516.81 50.34 C 508.90 46.49 498.93 45.70 491.10 50.16 C 483.08 54.66 479.30 64.20 479.01 73.03 C 478.38 82.22 481.30 92.35 488.99 98.01 C 497.24 104.02 508.59 103.09 517.51 99.10 C 518.13 103.33 518.94 107.53 519.70 111.74 C 507.80 116.12 494.00 117.42 482.27 111.81 C 473.53 107.98 467.32 99.81 464.41 90.89 C 461.04 79.36 461.32 66.53 466.56 55.59 C 471.18 45.24 481.04 37.71 492.02 35.24 Z" />
<path fill="#00783F" opacity="1.00" d=" M 203.71 35.72 C 209.72 35.72 215.73 35.77 221.74 35.71 C 227.91 55.74 234.91 75.53 240.48 95.75 C 245.72 75.62 251.70 55.69 257.36 35.68 C 263.18 35.72 269.01 35.72 274.83 35.65 C 267.45 56.36 260.30 77.15 252.91 97.85 C 248.09 110.17 243.50 122.83 235.63 133.61 C 230.04 141.44 221.46 146.76 212.33 149.49 C 211.02 144.73 209.54 140.02 208.04 135.31 C 218.34 131.95 226.63 123.65 230.75 113.72 C 231.40 112.23 231.57 110.52 230.92 109.00 C 221.90 84.56 212.46 60.26 203.71 35.72 Z" />
</g>
</svg>
