<svg width="20" height="21" viewBox="0 0 163 170" xmlns="http://www.w3.org/2000/svg"><g fill="#FFF"><path d="M0 0h3.15c0 55.5-.01 111 0 166.5 53.28-.01 106.57 0 159.85-.01V170H0V0z"/><path d="M15.09 38.13c5.41.01 10.82.04 16.23-.02.03 40.45.01 80.91.01 121.37-5.41-.03-10.83-.02-16.24-.01-.01-40.45-.01-80.89 0-121.34zM95.89 54.38c5.44-.03 10.88.01 16.32-.03.01 35.04.01 70.08 0 105.12-5.44-.02-10.88 0-16.31-.02-.01-35.02 0-70.05-.01-105.07zM68.93 70.64c5.44-.02 10.88.01 16.32-.02.01 29.62.01 59.24 0 88.86-5.44-.04-10.88 0-16.33-.03 0-29.6 0-59.2.01-88.81zM41.84 86.87c5.69-.01 11.37-.01 17.06-.01v72.6c-5.69-.01-11.38.02-17.06-.02.01-24.19 0-48.38 0-72.57z"/></g></svg>