<svg width="19" height="19" viewBox="0 0 102 102" xmlns="http://www.w3.org/2000/svg"><path fill="#FFF" d="M47.57 0h7.52c13.77 1.57 27.06 8.05 35.79 18.98 6.46 8.01 10.73 17.99 11.12 28.35v8.26c-1.23 24.08-22.34 45.18-46.42 46.41H45.24C29 100.22 14.06 90.02 6.33 75.65 2.76 69.38 1.16 62.27 0 55.22v-7.69c1.33-10.64 5.13-21.13 12.24-29.3C20.97 7.68 34.08 1.5 47.57 0M32.28 20.93c-3.91 3.7-7.93 7.29-11.81 11.02 4.91 4.94 9.84 9.88 14.79 14.78 2.11 1.65 3.91 4.98 1.67 7.27-5.27 5.51-10.77 10.8-16.14 16.22 3.9 3.76 7.45 7.85 11.38 11.59 5.45-5.45 10.85-10.95 16.43-16.26 1.72-1.99 4.61-.97 6.12.72 5.16 5.04 10.2 10.2 15.33 15.28 3.88-3.77 7.68-7.61 11.48-11.46-4.18-4.68-8.88-8.85-13.28-13.31-1.4-1.44-3-2.82-3.75-4.74-.57-2.16 1.2-3.67 2.52-5.07 4.88-4.9 9.79-9.77 14.66-14.68-3.89-3.77-7.77-7.54-11.67-11.29-5.18 5.16-10.32 10.38-15.53 15.52-1.51 1.81-4.48 1.89-6.13.24-5.47-5.16-10.36-10.93-16.07-15.83z"/></svg>