<svg width="356pt" height="224pt" viewBox="0 0 356 224" xmlns="http://www.w3.org/2000/svg"><g fill="#FFF"><path d="M142 0h4.11c-.01 73.13 0 146.26-.01 219.39 69.97.01 139.93 0 209.9 0V224H143.69c0-.37-.02-1.1-.02-1.47-.42-.04-1.25-.11-1.67-.14V0zM0 0c35.35 37.33 70.66 74.7 106.03 112C70.66 149.31 35.35 186.67 0 224V0z"/><path d="M161.78 50.21h21.36c-.01 53.32 0 106.64-.01 159.95-7.12 0-14.23-.01-21.35.01-.01-53.32 0-106.64 0-159.96zM267.93 71.67c7.13-.01 14.26-.02 21.39 0-.04 46.17.01 92.33-.02 138.5-7.12-.02-14.25 0-21.37-.01V71.67zM232.55 93.06c7.13.01 14.26-.01 21.39.01-.03 39.03.02 78.06-.03 117.09-7.11 0-14.23-.01-21.35.01-.03-39.04-.01-78.07-.01-117.11zM196.86 114.56c7.5-.21 15.01-.05 22.51-.08-.05 31.9 0 63.79-.03 95.69-7.3.04-14.61-.14-21.91.09-1.34-3.9.03-8.14-.52-12.17.32-6.7-.25-13.39.09-20.09-.1-1.33-.1-2.67 0-4-.09-14.67-.23-29.34.02-44-.3-5.14-.03-10.29-.16-15.44z"/></g></svg>