<svg width="180" height="180" viewBox="0 0 180 180" xmlns="http://www.w3.org/2000/svg"><g fill="#DDDDDD"><path d="M0 15.01c32.58.06 65.17-.14 97.75.1-.14 9.93-.14 19.86 0 29.78-32.58.26-65.17.04-97.75.11V15.01zM0 75c32.58.08 65.17-.14 97.75.11-.14 9.93-.14 19.86 0 29.78-32.58.27-65.17.04-97.75.11V75zM120.04 75.07c19.99-.14 39.97-.05 59.96-.05v.64c-10.36 12.11-19.59 25.2-29.93 37.3-10.21-12.46-19.95-25.32-30.03-37.89zM0 135.01c32.58.07 65.17-.15 97.75.11-.14 9.92-.14 19.85 0 29.77-32.58.26-65.17.04-97.75.12v-30z"/></g></svg>