<svg width="22" height="22" viewBox="0 0 437 437" xmlns="http://www.w3.org/2000/svg"><g fill="#fff"><path d="M28.2 41.49c63.34.15 126.69-.02 190.04.09 0 9.1.07 18.2.06 27.3 63.17-.42 126.35.41 189.52-.5-1.95 14.85-4.53 29.67-8.04 44.24-.41 3.04-1.11 6.03-1.98 8.97-.19 1.41-.43 2.81-1.05 4.11-.33 3.41-1.53 6.66-2.12 10.03-21.51.66-43.07.1-64.6.29-3.36.14-6.69-.36-10.05-.38-58.64.05-117.28-.02-175.93.01-14 .15-28.02-.35-42.01.39-19.86.13-39.73-.02-59.58.5-6-31.48-9.61-63.35-14.26-95.05zM49.02 150.96c110.01-.57 220.01-.7 330.02-.02 19.31.63 38.64.48 57.96.54v1.11c-.77.62-1.52 1.25-2.26 1.9-10.18 27.5-17.25 56.19-29.64 82.86-14.02-15.6-33.31-26.11-53.74-30.53-20.67-4.47-42.56-3.07-62.48 4.03-3.7 1.6-7.41 3.18-11.07 4.88-4.41 2.55-8.88 5.02-12.97 8.07-9.61 6.56-18.05 14.7-25.1 23.95-1.29 2.02-2.64 3.99-4.04 5.94-2.14 3.28-3.9 6.78-5.87 10.16-12.73 25.43-15.5 55.76-7.08 82.97 4.5 16.49 16.08 29.54 24.01 44.34.92 1.36 1.71 2.8 2.21 4.38-55.11-.59-110.23-.78-165.34.11-3.83-11.87-8.55-23.47-12.57-35.3-23.88-67.8-44.56-136.69-68.75-204.39-.38-1.33-1.28-2.39-2.31-3.26v-1.21c16.33-.37 32.7.26 49.02-.53z"/><path d="M313.37 234.22c14.22-4.07 29.43-1.49 43.11 3.4l-.12.81c2.29-.17 4.15 1.35 6.14 2.24 1.5.72 3.02 1.46 4.25 2.61.95.42 1.91.83 2.88 1.24v.73c2.39.67 4.18 2.48 6.07 3.99 5.57 4.34 10.75 9.44 15.04 15.05 1.1 1.26 2.19 2.53 3.08 3.96.19.57.55 1.71.73 2.28l1.21-.21-.15.88c.31.47.94 1.42 1.25 1.9.78.96 1.38 2.04 1.93 3.15l.88 2.36 1 .18c-.06.45-.17 1.35-.23 1.8l.99.12c.21 2.36 2.03 4.14 2.32 6.48.65.9.97 1.93.96 3.09.86.71 1.2 1.7 1.04 2.98 4.6 13.56 4.76 28.94.05 42.5-.11 1.11-.45 2.13-1.04 3.05-.74 2.38-1.48 5.02-3.09 6.95-.29 1.77-.76 3.67-2.01 5.03-.24.51-.72 1.51-.96 2.01-.22.5-.67 1.49-.9 1.99-.83 1.76-1.81 3.45-3 4.99-.56 1.04-1.27 1.99-2.03 2.91-1.35 2.31-3.29 4.23-5.22 6.08l-.02.54c-1.13.94-2.18 1.96-3.16 3.05-.29.23-.88.68-1.17.9-1.88 1.45-3.34 3.4-5.46 4.51-1.13.87-2.27 1.73-3.42 2.56-.84.48-1.68.97-2.52 1.47-.99.44-1.8.97-2.42 1.58-.46.24-1.38.71-1.84.95-2.6 1.09-4.95 2.82-7.75 3.41-17.98 7.64-38.87 8.95-57.56 3.04-1.14.03-2.13-.3-2.95-.99-1.07-.21-2.09-.53-3.07-.97-2.45-.73-4.7-1.97-6.96-3.11-3.89-1.93-7.69-4.15-11.03-6.93-2.3-1.35-4.07-3.39-5.97-5.22l-.74-.07-.06-.74c-.3-.3-.89-.9-1.19-1.2l-.53-.1c-1.46-2.23-3.57-3.92-5.05-6.13-.83-1.19-1.69-2.34-2.44-3.57-1.08-1.27-2.27-2.48-3-3.99-.76-.94-1.48-1.91-2.06-2.97-.41-.91-.91-1.75-1.51-2.52-1.23-2.46-2.89-4.79-3.38-7.54-3.5-6.6-4.63-14.35-5.65-21.74-.71-9.31.01-18.78 2.55-27.78.97-4.07 2.01-8.35 4.11-11.97.43-2.85 2.33-5.16 3.35-7.8.79-1.44 1.59-2.88 2.53-4.24 1.12-2.15 2.45-4.17 4.01-6.02.84-1.45 1.95-2.7 3.07-3.93 3.16-4.08 6.85-8.15 11.18-10.98l.12-.59c1.45-.88 2.77-1.95 4.1-3 5.2-3.32 10.58-6.92 16.62-8.37.21-.19.63-.57.85-.76 4.69-1.32 9.39-2.73 14.24-3.33m-.68 24.47c.12 13.39.89 26.77 1.17 40.16-6.29-.33-12.52.93-18.8.93-7.63-.11-15.24.29-22.86.43-.11 9.11-.25 18.21-.51 27.32 13.98.65 27.98.7 41.98.77-.96 13.09-.63 26.24-1.4 39.35 9.79.7 19.61.89 29.4 1.73.58-13.87.19-27.76 1.08-41.62 13.19.07 26.38.27 39.56.51.26-9.36.59-18.71.62-28.07-13.74-1.05-27.56.03-41.32-.58.43-13.64.3-27.29.7-40.93-9.87.14-19.75.14-29.62 0z"/></g></svg>