<svg width="976" height="308" viewBox="0 0 732 231" xmlns="http://www.w3.org/2000/svg"><path fill="#0069b5" d="M34.66 9.52c1.45-3.77 5.4-6.08 9.38-5.89C51.76 3.81 58.74 7.82 65 12c15.48 10.89 28.6 25.45 37.06 42.42l.07.14c-7.11 5.67-13.98 11.99-18.62 19.89-5.1 8.96-1.53 19.95 3.36 28.2l.11.18c-7.05 4.18-14.64 7.26-22.04 10.75-2.34-2.22-2.92-5.5-4.04-8.39-8.1-21.89-19.97-42.33-26.14-64.94-2.54-9.97-4.01-20.91-.1-30.73z"/><path fill="#069542" d="M148.93 23.93c13.86-6.68 28.68-12.19 44.18-13.1 5.71-.12 12.25.34 16.51 4.64 3.72 3.79 3.07 9.58 2.63 14.41-2.05 13.82-10.68 25.5-19.78 35.63-19.27 20.75-42.84 36.75-65.59 53.37-3.54 2.67-7.34 5.04-10.45 8.24-1.02-.06-2.03-.15-3.04-.25-10.3-6.1-20.12-13.67-26.41-24.04l-.11-.18c8.49-4.81 16.57-11.84 19.4-21.5 2.45-9-.41-18.37-4.14-26.59l-.07-.14c14.52-11.73 30.38-21.76 46.87-30.49z"/><path fill="#002a57" d="M83.51 74.45c4.64-7.9 11.51-14.22 18.62-19.89 3.73 8.22 6.59 17.59 4.14 26.59-2.83 9.66-10.91 16.69-19.4 21.5-4.89-8.25-8.46-19.24-3.36-28.2z"/><g fill="#075e2b"><path d="M227.19 58.28c5.4-2.42 11.46-.93 16.78.93.07 20.24-.01 40.48.05 60.73 9.31-6.99 18.82-13.72 28.17-20.67 5.3-3.82 10.86-8.35 17.77-8.27 6.21-.58 11.95 3.23 15 8.45-12.95 11.13-27.16 20.66-41.09 30.48 17.45 13.33 32.67 29.47 45.44 47.3-9.18.06-18.37-.03-27.55.05-10.97-13.5-23.96-25.18-37.74-35.73-.04 11.9-.01 23.8-.02 35.7h-22c.01-36.77-.01-73.55.01-110.32-.19-3.59 1.79-7.25 5.18-8.65zM580.47 57.62c6.52-2.19 14.42 1.61 16.39 8.27 2.21 6.16-.89 13.6-6.9 16.22-6.58 3.12-15.43-.2-17.79-7.21-2.74-6.77 1.12-15.38 8.3-17.28zM333.42 94.53c10.39-5.78 22.86-6.95 34.44-4.88 9.98 1.93 20.05 7.57 24.31 17.21 4.91 10.67 2.23 25.7-8.88 31.35-14.93 7.77-32.45 7.24-48.81 6.76 2.01 6.16 6.71 11.41 12.95 13.44 11.96 3.91 25.24 1.63 36.07-4.44 2.78 5.39 5.61 10.76 8.43 16.14-11.74 7.48-26.07 10.08-39.83 9.26-12.59-.8-25.22-6.48-32.8-16.8-7.69-10.07-9.77-23.43-8.01-35.75 1.84-13.4 10.05-25.97 22.13-32.29m9.01 16.88c-5.37 4.15-8.01 10.79-9.06 17.31 11.57-.29 23.9 1.48 34.71-3.64 6.28-2.61 6.14-12.51.37-15.6-7.99-4.46-18.8-3.79-26.02 1.93zM413.33 102.41c6.48-9.57 18.47-13.57 29.6-13.67 7.87-.03 16.54.38 23.11 5.23 6.02 4.71 4.16 14.4-1.43 18.66-4.22-.99-8.15-3.16-12.54-3.47-5.84-.52-12.54-.4-17.13 3.8-4.08 3.81-4.85 9.74-4.94 15.03-.01 16.42 0 32.84 0 49.26h-22.25c-.01-15.77.01-31.55-.01-47.32-.13-9.37-.08-19.55 5.59-27.52zM483.23 98.26c7.39-6.96 17.94-9.04 27.75-9.47 10.46-.21 21.24.09 31.16 3.76 4.64 1.81 9.96 4.9 10.6 10.35.76 5.28-3.03 9.89-7.44 12.24-7.83-6.5-18.38-8.38-28.27-8.88-5.59.02-11.75-.03-16.58 3.2-3.46 2.26-3.75 8.03-.01 10.15 5.89 3.34 12.92 3.05 19.42 4.15 11.06 1.27 23.24 2.74 31.71 10.75 9.45 10.11 7.31 28.12-3.53 36.46-10.26 8.31-24.31 9.01-36.94 8.38-13.02-1.08-26.48-3.83-37.5-11.19 2.96-5.19 5.81-10.45 8.81-15.62 9.46 5.79 20.64 8.33 31.63 8.92 5.7.13 11.69-.09 16.93-2.58 4.19-1.8 4.71-8.29 1.09-10.92-3.53-2.47-7.99-2.81-12.11-3.43-9.76-1.34-19.94-1.39-29.11-5.37-6.49-2.72-12.15-8.03-14.13-14.9-2.5-8.98-.49-19.54 6.52-26zM622.95 93.89c5.54-3.86 12.53-4.64 19.1-5.05 10.67-.42 21.74.16 31.67 4.46 6.87 2.92 12.75 8.3 15.88 15.12 2.77 5.78 3.44 12.29 3.42 18.62-.06 16.56.03 33.13-.06 49.7-13.89 1.95-27.93 2.97-41.96 2.75-10.78-.3-22.23-1.82-31.18-8.33-6.02-4.35-8.89-11.89-8.86-19.13-.19-7 1.13-14.66 6.2-19.85 4.39-4.83 10.74-7.25 17-8.58 12.11-2.38 24.55-1.66 36.77-.63-.68-4.69-2.35-9.65-6.65-12.22-5.73-3.49-12.8-3.47-19.3-3.47-7.3.08-14.58 2.14-20.64 6.28-2.11-2.27-4.58-4.48-5.42-7.58-1.3-4.34.22-9.5 4.03-12.09M635.94 143c-3.29 3.53-3.73 9.25-1.49 13.45 2.04 3.36 6.16 4.48 9.78 5.23 8.86 1.4 17.92.92 26.76-.44.02-7.09 0-14.17.01-21.26-7.56-1.3-15.27-1.62-22.92-1.17-4.25.4-8.93 1.08-12.14 4.19zM577.67 92.67c5.57-2.98 12.14-1.46 17.78.51.11 28.02.02 56.05.05 84.07-7.42-.01-14.84.02-22.26-.02.02-24.75.02-49.49 0-74.23-.06-3.81.68-8.41 4.43-10.33zM711.38 152.47c6.36-2.88 14.7.22 17.17 6.87 3.43 7.46-2.2 17.21-10.46 17.66-6.05.89-12.22-3.18-13.8-9.06-1.96-5.98 1.31-13.04 7.09-15.47m3.16 2.17c-6.73 1.25-10.28 10.18-5.78 15.53 4.01 5.95 14.11 4.91 16.81-1.75 3.75-6.93-3.5-15.81-11.03-13.78z"/><path d="M711.76 156.85c3.27.09 7.17-.89 9.92 1.42 1.87 1.89.24 4.37-.78 6.21.83 2.16 1.57 4.36 2.28 6.57l-3.8-.12c-.7-2.39-1.37-5.05-3.92-6.05-.15 2.04-.22 4.08-.27 6.12h-3.44c0-4.72-.01-9.43.01-14.15m3.65 1.93c-.08 1.55-.13 3.09-.16 4.64 1.41-.61 3.39-.71 3.95-2.44-.88-1.29-2.45-1.63-3.79-2.2zM223 201.96l1.77.12c-.05 7.62-.03 15.25-.01 22.88-.44.01-1.32.05-1.76.06v-23.06zM230.15 201.38c2.68 1.42 4.08 4.2 5.71 6.62 2.97 4.67 6.21 9.18 8.83 14.07-.37-6.69-.13-13.39-.19-20.08l1.75.01c-.07 7.9.17 15.81-.15 23.71a15.543 15.543 0 0 1-3.76-4.12c-3.55-5.53-7.18-11.01-10.66-16.57.53 6.64.26 13.32.32 19.98h-2c.07-7.87-.17-15.75.15-23.62zM248.7 201.43c1.46.45 2.52 1.45 2.83 2.97 1.97 5.93 3.79 11.91 5.81 17.82 1.63-5.23 3.61-10.34 5.4-15.52.81-2.06 1.22-4.74 3.82-5.26-2.69 7.94-5.53 15.86-8.74 23.6-2.01.51-1.95-1.86-2.54-3.12-2.07-6.87-4.68-13.57-6.58-20.49zM268.47 202.04c4.1-.04 8.2-.2 12.29.21-2.83 2.4-6.9.84-10.26 1.24v8.49c3.09.02 6.2-.14 9.28.3-.06.31-.17.95-.22 1.26-3.01.37-6.04.19-9.05.21-.01 3.17-.01 6.33-.01 9.5 3.72.01 7.49-.26 11.14.64-4.07 2.03-8.76.8-13.12 1.11-.06-7.65.02-15.31-.05-22.96zM284.39 201.39c1.22.85 2.44 1.75 3.23 3.05 3.76 5.74 7.51 11.48 11.22 17.25-.41-6.77-.49-13.56-.19-20.34 2.64.79 1.7 3.62 1.89 5.66-.15 5.97.12 11.94-.11 17.91-1.65.66-2.36-1.06-3.16-2.11-3.76-5.76-7.5-11.52-11.22-17.3-.11 6.51-.03 13.01-.05 19.52-.44-.02-1.32-.07-1.77-.09.11-7.85-.14-15.7.16-23.55zM302.51 202c5.59 0 11.17 0 16.76.01l-.04 1.48c-2.5.01-5 .02-7.5.04.04 7.13-.02 14.26.04 21.39l-1.77.12c-.02-7.19.04-14.38-.04-21.57-2.5.02-4.99.03-7.48.04l.03-1.51zM321.22 202.08l1.78-.12v23.07c-.44-.02-1.33-.07-1.77-.1.03-7.61.04-15.23-.01-22.85zM328.37 201.42c1.29.74 2.53 1.61 3.28 2.94 3.72 5.66 7.41 11.34 11.1 17.03.08-6.7-.17-13.41.16-20.1 1.4.77 1.77 2.17 1.61 3.66-.06 6.88.08 13.76-.13 20.63-2.8-1.57-4.17-4.58-5.88-7.14-2.88-4.39-5.76-8.78-8.51-13.25-.01 6.61 0 13.23 0 19.85-.44-.03-1.33-.08-1.77-.11.11-7.84-.13-15.68.14-23.51zM355.37 202.53c3.38-.96 8.15-1.76 10.64 1.41-3.75-.09-7.91-1.34-11.34.79-5.48 3.26-5.97 11.88-1.73 16.31 2.95 2.98 7.48 2.61 11.28 2.09.03-2.71.03-5.42.04-8.13H359v-1.5h7.25v10.6c-4.63 1.02-10.12 1.96-14.14-1.22-6.33-5.3-4.94-17.62 3.26-20.35zM384.47 202.24c.37-.11 1.11-.32 1.48-.42 3.19 7.79 5.98 15.77 8.58 23.78-3.52-1.29-3.46-5.63-4.81-8.58-2.95-.02-5.9-.02-8.85-.02-1.37 2.87-1.17 7.41-4.79 8.45 2.64-7.79 5.39-15.56 8.39-23.21m-2.88 13.01c2.45 0 4.89.01 7.35.02-1.22-3.5-2.47-6.99-3.57-10.53-1.28 3.5-2.53 7-3.78 10.51zM404.5 202c4.69 0 9.37-.03 14.06.05-.04 1.48-.07 2.97-.09 4.45-2.91 0-5.82 0-8.72.01-.01 1.66-.01 3.33 0 5 2.73-.01 5.46-.02 8.19-.04l.06 4.29c-2.75-.01-5.51-.02-8.25-.02-.01 3.08-.01 6.16.01 9.24l-5.26.03V202zM428.28 202.25c4.67-1.48 10.68-.26 13.15 4.34 2.44 4.57 2.27 10.74-.91 14.93-3.69 4.5-11.07 4.98-15.58 1.47-6.3-5.49-4.93-17.88 3.34-20.74m2 4.11c-5.37 2.91-4.84 13.7 1.78 14.65 4.68-.3 6.06-6.16 5.11-9.96-.43-3.1-3.63-6.31-6.89-4.69z"/><path d="M452.26 202.28c4.92-1.66 11.29-.1 13.58 4.93 1.95 4.53 1.79 10.39-1.34 14.38-3.2 3.89-9.18 4.67-13.61 2.59-8.32-4.26-7.58-18.8 1.37-21.9m2.06 4.07c-4.87 2.79-4.86 11.44.01 14.23 3.66 1.65 6.98-2.2 7.06-5.65.97-4.1-2.05-10.63-7.07-8.58zM470.26 202.24c5.05-.4 10.54-1.15 15.24 1.27 6.87 3.79 6.53 15.05.35 19.34-4.62 2.93-10.36 2.1-15.55 2.06-.1-7.56-.03-15.11-.04-22.67m5.27 3.73c-.05 4.98-.04 9.96-.02 14.95 2.52-.27 5.5-.03 7.36-2.12 2.44-2.95 2.71-7.8.19-10.79-1.89-2.13-4.96-1.87-7.53-2.04zM503.11 202.88c3.41-1.73 7.59-1.49 11.08-.11-.24 1.42-.56 2.83-.87 4.24-2.63-.55-7.74-2.35-8.23 1.66 2.47 2.55 6.53 2.71 8.87 5.43 2.37 3 1.39 8-2.03 9.79-3.9 2.19-8.6 1.41-12.62-.01.4-1.45.81-2.9 1.23-4.34 2.98.8 8.28 2.87 9.43-1.46-2.24-3.03-6.87-2.83-9.11-5.93-2.26-2.96-1.07-7.65 2.25-9.27zM516.69 225.07c2.33-7.71 4.69-15.41 7.07-23.1 2.31.02 4.62.04 6.94.08 2.3 7.67 4.76 15.29 7.08 22.95h-5.8c-.61-2-1.21-4-1.81-6h-6.16c-.57 1.98-1.02 4.01-1.89 5.89-1.81.16-3.63.14-5.43.18m8.07-10.07h4.56c-.78-2.73-1.54-5.45-2.32-8.17-.74 2.72-1.48 5.45-2.24 8.17zM540.5 202c4.68 0 9.36-.02 14.04.04-.03 1.48-.05 2.97-.06 4.46h-8.73c-.01 1.66-.01 3.32-.01 4.99 2.76.01 5.53.01 8.3.03-.03 1.41-.06 2.83-.08 4.25-2.74-.02-5.48-.03-8.21-.03-.01 3.08-.01 6.16.01 9.24l-5.26.03V202zM558.24 202.01c4.67-.02 9.34-.01 14.01-.01-.01 1.5-.01 3 0 4.5-2.91 0-5.81 0-8.71-.01-.05 1.48-.09 2.95-.12 4.43 2.77.06 5.55.09 8.34.1-.02 1.41-.03 2.82-.03 4.23-2.75 0-5.5 0-8.24.01 0 1.74 0 3.49.01 5.24 3.09 0 6.17 0 9.26.02-.01 1.49-.01 2.97 0 4.46-4.84.03-9.68.03-14.52.01.02-7.66.02-15.32 0-22.98zM579.87 201.99c1.91.01 3.82.02 5.75.05.96 5.39 1.99 10.77 2.85 16.19 1.19-5.41 2.25-10.85 3.4-16.26 1.9.02 3.8.06 5.72.1.96 5.37 2.01 10.72 2.94 16.1.82-5.4 1.9-10.75 2.96-16.11 1.85-.04 3.71-.06 5.58-.08-2.02 7.67-3.97 15.36-5.96 23.03l-5.78-.03c-.95-5.1-1.97-10.19-2.84-15.3-1.19 5.1-2.31 10.22-3.41 15.34l-5.81-.06c-1.79-7.66-3.71-15.29-5.4-22.97zM617.21 202.28c4.68-1.52 10.73-.31 13.22 4.3 2.44 4.57 2.27 10.72-.9 14.92-3.68 4.52-11.09 5-15.6 1.48-6.26-5.48-4.92-17.8 3.28-20.7m2.03 4.11c-5.29 2.94-4.8 13.6 1.76 14.62 4.74-.24 6.13-6.18 5.16-10-.44-3.11-3.68-6.3-6.92-4.62zM635.26 202.23c4.85-.22 10.61-1.54 14.72 1.8 3.01 2.95 1.7 7.76-1.41 10.09 2.18 3.26 2.93 7.15 3.92 10.88h-5.53c-.91-2.76-1.22-5.8-2.8-8.28a23.33 23.33 0 0 0-3.62-1.13c-.06 3.12-.05 6.24-.01 9.37-1.77.01-3.54.02-5.29.04.03-7.59 0-15.18.02-22.77m5.25 3.51c-.01 2.18-.01 4.36.01 6.55 2.15-.38 5.58-.23 5.85-3.19.2-3.28-3.66-3-5.86-3.36zM655 201.98c1.84.02 3.68.04 5.53.07-.05 6.07-.03 12.14-.02 18.2 2.98 0 5.97 0 8.97.01.02 1.55.04 3.11.08 4.68-4.86.09-9.71.06-14.56.06v-23.02zM672.26 202.24c5.1-.4 10.66-1.18 15.37 1.35 7.37 4.29 6.19 17.23-1.72 20.27-4.33 1.69-9.08 1.09-13.61 1.05-.1-7.56-.03-15.11-.04-22.67m5.27 3.73c-.06 4.98-.04 9.96-.02 14.94 2.52-.26 5.51-.02 7.36-2.12 2.57-3.1 2.79-8.46-.37-11.25-1.91-1.69-4.62-1.38-6.97-1.57z"/></g><path fill="#00a5e4" d="M63.27 113.46c2.32 3.34 2.66 7.53 3.48 11.41 1.85 9.93 1.34 20.87-4.22 29.6-5.63 8.68-15.51 13.67-25.44 15.59-8.43 1.53-17.4 1.48-25.49-1.6-4.47-1.73-8.96-4.76-10.49-9.54-1.49-4.53.27-9.31 2.61-13.21 4.59-7.7 12.24-13.01 20.19-16.81 12.65-6.3 26.64-9.35 39.36-15.44z"/><path fill="#49b848" d="M113.59 128.23c.85-.18 1.71-.33 2.57-.46 3.13 4.2 7.08 7.68 10.64 11.51 12.08 12.64 24.55 25.3 33.13 40.68 5.59 10.07 9.16 21.98 6.67 33.49-.99 4.64-4.82 8.69-9.68 9.12-7.86.8-15.3-2.84-21.95-6.61-13.16-8.01-24.6-18.91-33.17-31.7-5.57-8.61-10.38-19-7.93-29.47 2.67-11.18 11.63-19.08 19.72-26.56z"/></svg>