<svg xmlns="http://www.w3.org/2000/svg" width="134" height="40" viewBox="0 0 427 129"><path fill="#008ECB" d="M51.17 61.198V43.495c0-13.038-10.167-19.617-24.52-19.617-7.178 0-14.594 1.914-19.02 4.785l3.11 13.277c3.947-2.512 9.808-4.186 15.07-4.186 5.862 0 8.494 2.153 8.494 5.382v1.794L23.54 46.007C12.775 47.083 5 53.782 5 63.71c0 11.243 8.51 16.147 18.078 16.147H51.17v-18.66zm-16.865-.24c0 4.665-3.47 7.895-7.655 7.895-3.35 0-5.502-2.393-5.502-5.264 0-3.23 2.034-6.46 6.58-6.82l6.578-.597v4.785zM110.546 79.857V42.18c0-11.483-7.177-18.182-19.02-18.182-8.73 0-14.353 3.23-16.505 8.97h-.12v-7.295H58.754v54.185h17.583V46.844c0-4.306 3.35-7.655 8.612-7.655 5.383 0 8.014 3.468 8.014 7.415v33.252h17.584z"/><path fill="#003762" d="M237.642 37.514v-11.84H225.91c-2.75 0-5.373-.12-7.765-.72-2.273-.597-4.785-1.076-8.014-1.076-14.113 0-22.367 8.014-22.367 19.497 0 6.818 3.828 11.96 7.895 14.473-3.11 1.316-6.1 4.306-6.58 7.774l6.94 6.938c-5.623 1.436-11.125 6.34-11.125 14.594 0 11.363 10.526 20.334 26.314 20.334 15.79 0 25.956-8.373 25.956-19.497 0-9.927-5.74-15.31-16.386-19.137l-8.373-2.99c-.957-.36-1.436-1.077-1.436-1.675 0-1.436 1.436-1.914 3.59-2.034 10.524-.718 17.7-8.373 17.7-17.463 0-1.913-.717-4.425-1.314-5.5 2.39.12 5.022-.72 6.698-1.676zm-36.483 49.76c0-3.948 3.11-6.94 7.295-7.06l6.46 1.796c3.468.957 5.382 3.588 5.382 6.1 0 3.11-3.35 5.98-9.57 5.98-6.34 0-9.568-3.11-9.568-6.817zm15.907-44.138c0 3.588-3.11 6.46-6.937 6.46-3.947 0-6.938-2.872-6.938-6.46 0-3.47 2.99-6.46 6.938-6.46 4.067 0 6.937 2.99 6.937 6.46zM289.963 57.665c5.34-26.7-9.917-33.787-21.968-33.787-15.55 0-28.228 11.124-28.228 28.587 0 17.703 10.665 27.392 29.668 27.392h17.06V66.68h-13.314c-9.21 0-14.892-4.59-15.728-9.015h32.51zM275.89 44.69c0 .48-.12.838-.12 1.197h-18.3c1.076-4.904 5.383-8.85 10.525-8.85 4.665 0 7.895 3.946 7.895 7.654zM331.714 25.673h-33.266v54.185h17.583V52.765c0-8.612 1.046-12.438 6.668-12.438h9.016V25.673zM422.393 79.857V42.18c0-11.483-6.818-18.182-19.14-18.182-8.133 0-14.472 3.588-16.745 8.852-2.392-5.74-8.253-8.852-16.027-8.852-8.49 0-13.874 3.23-16.027 8.97h-.12v-7.295h-16.267v54.185h17.583V46.844c0-4.306 2.51-7.655 8.133-7.655 5.74 0 7.655 3.468 7.655 7.415v33.252h17.583V46.844c0-4.306 2.513-7.655 8.135-7.655 5.74 0 7.655 3.468 7.655 7.415v33.252h17.583z"/><path fill="#008ECB" d="M175.44 79.857V25.673h-17.695V40.12l-.007 4.49v35.247h17.702M149.772 25.544h-14.18L135.548 6H118.13v57.47c0 10.766 5.827 16.388 19.56 16.388h9.154V66.68c-1.387 0-2.04.02-4.075.02-4.666 0-7.177-1.913-7.177-6.578V40.026h14.023l.156-14.482zM175.44 20.342V6h-17.695v4.254l-.007 1.322v8.766h17.702M265.468 100.54v-1.666h-9.73v18.315h1.922v-8.383h6.66v-1.665h-6.66v-6.604h7.808zm17.91 10.16c0-3.96-2.957-6.802-6.833-6.802-3.875 0-6.86 2.842-6.86 6.803 0 3.963 2.985 6.776 6.86 6.776 3.876 0 6.833-2.813 6.833-6.775zm-1.838.03c0 3.043-2.21 5.167-4.995 5.167-2.784 0-5.022-2.124-5.022-5.167s2.238-5.196 5.022-5.196c2.785 0 4.995 2.154 4.995 5.196zm21.1-.03c0-3.96-2.956-6.802-6.832-6.802-3.875 0-6.86 2.842-6.86 6.803 0 3.963 2.985 6.776 6.86 6.776 3.876 0 6.832-2.813 6.832-6.775zm-1.838.03c0 3.043-2.21 5.167-4.994 5.167s-5.023-2.124-5.023-5.167 2.24-5.196 5.023-5.196 4.994 2.154 4.994 5.196zm19.75 6.46V96.75h-1.837v8.497c-.632-.688-2.182-1.35-3.847-1.35-3.818 0-6.66 2.843-6.66 6.804 0 4.25 3.215 6.776 6.488 6.776 2.066 0 3.445-.86 4.076-1.723h.028v1.436h1.752zm-1.837-3.015c-.66.86-1.952 1.723-3.675 1.723-2.812 0-4.995-2.124-4.995-5.167s2.183-5.195 4.995-5.195c1.78 0 3.043.833 3.675 1.522v7.118zm26.754-1.952c0-3.043-1.952-4.507-5.17-5.684-2.266-.834-3.3-1.838-3.3-3.388 0-1.437 1.206-2.842 3.445-2.842 1.378 0 2.784.545 3.473 1.062l.432-1.637c-.746-.488-2.183-1.033-3.848-1.033-3.645 0-5.34 2.268-5.34 4.564 0 2.497 1.522 4.048 4.738 5.195 2.525.92 3.645 1.982 3.645 3.905 0 1.98-1.606 3.302-3.846 3.302-2.097 0-3.82-.747-5.14-1.81l.26 2.097c1.003.717 2.697 1.377 4.792 1.377 3.59.002 5.857-2.007 5.857-5.107zm16.904 4.076c-.833-.144-1.607-.833-1.607-2.125v-5.94c0-2.786-2.038-4.336-4.823-4.336-1.55 0-2.9.343-3.904 1.032l.373 1.52c.833-.573 2.153-.975 3.445-.975 1.952 0 3.07.976 3.07 2.583v1.234l-3.415.315c-2.21.2-4.22 1.52-4.22 4.047 0 2.124 1.665 3.818 4.162 3.818 1.665 0 3.215-.805 3.703-2.297.115 1.32 1.15 2.096 2.04 2.297l1.176-1.176zm-3.445-3.733c0 2.096-1.665 3.358-3.33 3.358-1.493 0-2.556-.976-2.556-2.268 0-1.407 1.005-2.383 2.813-2.555l3.07-.287v1.752h.002zm17.798-15.444c-.604-.258-1.437-.373-2.384-.373-3.157 0-5.34 1.78-5.34 5.426v2.01h-2.296v1.492h2.297v11.512h1.837v-11.512h4.02l.373-1.492h-4.393v-1.924c0-2.698 1.406-3.962 3.59-3.962.602 0 1.377.145 1.894.373l.402-1.55zm14.664 11.8c0-2.527-1.98-5.024-5.54-5.024-3.102 0-6.287 2.61-6.287 6.802 0 3.99 3.13 6.775 6.86 6.775 1.694 0 2.87-.345 3.76-.89l.23-1.81c-.947.632-2.182 1.09-3.79 1.09-3.3 0-5.252-2.582-5.166-4.993h8.783l1.09-1.062c.06-.26.06-.575.06-.89zm-1.838.027c0 .144 0 .316-.028.43h-7.95c.314-2.037 2.21-3.902 4.362-3.902 2.353 0 3.616 1.807 3.616 3.472zm15.96-4.764h-4.765v-3.762l-1.78.948v2.813h-2.584v1.492h2.583v8.182c0 2.267 1.578 3.443 3.56 3.443.545 0 1.09-.058 1.435-.26l.2-1.49c-.343.172-.803.258-1.32.258-1.262 0-2.095-.573-2.095-2.096v-8.037h4.42l.345-1.49zm16.62 0h-1.75l-2.785 6.774c-.374.918-.948 2.325-1.38 3.416h-.057c-.373-1.148-.89-2.412-1.292-3.416l-2.783-6.774h-1.895l5.052 12.258c-1.52 3.473-3.186 5.194-5.77 6.258l1.177 1.177c2.7-1.15 4.737-3.245 6.604-7.81l4.88-11.884z"/></svg>