<svg width="20" height="20" viewBox="0 0 22 22" xmlns="http://www.w3.org/2000/svg"><path fill="#fff" d="M10.56 0h.81C16.89.25 21.75 4.78 22 10.37v1.28C21.78 17.14 17.08 21.8 11.59 22h-.95C5.03 21.89.37 17.14 0 11.61v-1.09C.33 4.95 5 .33 10.56 0M4.99 6.03c1.65 2.1 4.03 3.43 6.04 5.14 2.18-1.61 4.37-3.22 6.42-5-4.15-.03-8.31.12-12.46-.14m8.85 4.42c1.27 1.35 2.67 2.56 4.1 3.73-.21-2.21-.24-4.45-.14-6.67-1.31 1-2.63 1.98-3.96 2.94M4.37 7.46c.07 2.29.08 4.57.03 6.86 1.36-1.24 2.68-2.54 3.83-3.99-1.31-.92-2.6-1.87-3.86-2.87m.1 8.65c4.42-.34 8.86-.35 13.27 0-1.64-1.6-3.24-3.23-4.79-4.92-.47.4-1.41 1.19-1.88 1.59-.46-.39-1.37-1.15-1.82-1.54-1.6 1.62-3.2 3.23-4.78 4.87z"/></svg>