<?xml version="1.0" encoding="UTF-8" ?>
<!DOCTYPE svg PUBLIC "-//W3C//DTD SVG 1.1//EN" "http://www.w3.org/Graphics/SVG/1.1/DTD/svg11.dtd">
<svg width="500pt" height="584pt" viewBox="0 0 500 584" version="1.1" xmlns="http://www.w3.org/2000/svg">
<g id="#555555ff">
<path fill="#555555" opacity="1.00" d=" M 167.41 0.00 L 337.52 0.00 C 357.93 3.51 378.50 11.66 392.30 27.72 C 404.83 41.14 408.08 60.74 421.74 73.26 C 431.26 82.09 445.45 82.33 455.32 90.65 C 476.33 105.48 486.50 129.81 500.00 150.76 L 500.00 162.29 C 496.17 165.52 492.04 168.48 487.43 170.47 C 477.26 173.52 466.56 173.96 456.02 174.03 C 317.67 173.98 179.33 174.00 40.98 174.02 C 32.60 174.02 24.15 173.29 16.07 170.97 C 9.82 169.08 4.76 164.75 0.00 160.45 L 0.00 151.65 C 2.84 144.43 6.26 137.45 9.37 130.35 C 15.41 117.02 21.88 102.97 34.08 94.10 C 48.33 82.50 68.85 85.29 83.58 74.56 C 99.58 60.74 103.32 38.01 118.69 23.68 C 131.66 10.47 149.37 3.05 167.41 0.00 M 186.43 45.47 C 175.44 46.40 163.74 47.24 154.04 53.06 C 149.62 55.46 147.33 60.45 146.15 65.13 C 145.66 69.98 145.72 76.69 151.08 78.83 C 164.48 86.11 180.41 85.43 195.13 86.78 C 226.08 87.31 257.04 86.86 288.00 87.02 C 307.03 86.64 326.32 86.41 344.91 81.92 C 349.92 80.22 355.94 78.37 358.04 73.02 C 360.73 68.73 359.92 63.01 356.69 59.26 C 348.89 50.25 336.80 45.77 325.03 45.97 C 296.69 45.86 268.34 46.09 240.00 46.04 C 222.14 46.08 204.29 44.10 186.43 45.47 Z" />
<path fill="#555555" opacity="1.00" d=" M 49.46 228.56 C 55.39 212.72 72.28 202.49 88.99 203.13 C 192.32 202.74 295.67 203.23 399.01 202.90 C 411.42 203.28 424.99 202.06 436.02 208.99 C 449.99 216.74 457.14 233.37 455.12 248.98 C 444.41 338.08 433.82 427.20 423.29 516.32 C 421.63 528.83 421.23 541.72 416.58 553.62 C 409.37 568.87 394.69 579.93 378.45 584.00 L 126.57 584.00 C 109.41 579.75 93.54 567.74 87.12 550.97 C 82.43 537.47 81.72 523.11 79.92 509.06 C 69.22 424.39 58.72 339.70 47.87 255.05 C 46.74 246.24 46.85 237.10 49.46 228.56 M 156.42 246.45 C 146.52 248.37 140.20 258.31 140.06 267.98 C 139.84 347.98 140.17 428.00 139.91 508.01 C 140.11 517.84 139.10 529.47 147.25 536.75 C 154.24 542.57 165.10 543.80 172.99 539.01 C 180.95 535.13 184.89 525.56 184.05 517.03 C 184.00 437.01 183.91 357.00 184.09 276.99 C 183.89 271.62 184.18 266.15 183.16 260.86 C 179.72 250.05 167.48 243.18 156.42 246.45 M 248.42 246.46 C 239.62 248.39 232.17 256.83 231.99 265.96 C 231.93 347.64 232.12 429.33 231.91 511.01 C 232.39 518.52 230.76 527.57 236.38 533.64 C 244.50 544.34 262.84 544.92 270.90 533.91 C 275.55 528.85 276.14 521.55 276.07 515.02 C 275.95 436.68 275.97 358.33 276.06 279.99 C 275.63 272.32 276.81 264.04 272.94 257.03 C 268.79 248.13 257.77 243.75 248.42 246.46 M 335.42 246.44 C 328.86 248.15 322.67 252.66 320.09 259.08 C 317.28 266.01 318.32 273.71 317.92 280.99 C 318.15 359.34 317.85 437.69 318.05 516.04 C 316.18 529.31 327.36 542.94 341.00 541.83 C 351.94 542.68 361.73 532.69 362.01 522.04 C 362.06 440.36 361.89 358.67 362.08 276.99 C 361.58 270.68 362.71 263.89 360.11 257.94 C 355.73 249.09 345.17 243.79 335.42 246.44 Z" />
</g>
</svg>
